<?xml version="1.0" encoding="utf-8"?>
<!-- Generator: Adobe Illustrator 26.0.0, SVG Export Plug-In . SVG Version: 6.00 Build 0)  -->
<svg width="48" height="48" version="1.1" id="图层_1" xmlns="http://www.w3.org/2000/svg" xmlns:xlink="http://www.w3.org/1999/xlink" x="0px" y="0px"
	 viewBox="0 0 48 48" style="enable-background:new 0 0 48 48;" xml:space="preserve">
<style type="text/css">
	.st0{fill:none;stroke:#9C9C9C;stroke-width:2;stroke-miterlimit:10;}
	.st1{fill:none;stroke:#CA1837;stroke-width:2;stroke-linecap:round;stroke-miterlimit:10;}
	.st2{fill:none;stroke:#9C9C9C;stroke-width:2;stroke-linecap:round;stroke-miterlimit:10;}
	.st3{fill:none;stroke:#9C9C9C;stroke-width:1.75;stroke-linecap:round;stroke-miterlimit:10;}
	.st4{fill:none;stroke:#9C9C9C;stroke-width:2;stroke-linecap:round;stroke-linejoin:round;stroke-miterlimit:10;}
	.st5{fill:#BE1A37;}
	.st6{fill:#9C9C9C;}
	.st7{fill:#FFFFFF;}
	.st8{fill:none;stroke:#9C9C9C;stroke-linecap:round;stroke-linejoin:round;stroke-miterlimit:10;}
	.st9{fill:none;stroke:#CA1837;stroke-width:2;stroke-linecap:round;stroke-linejoin:round;stroke-miterlimit:10;}
	.st10{fill:#CA1837;}
</style>
<g>
	<g>
		<path class="st6" d="M40.64,17.93H7.08c-2.77,0-5.02-2.25-5.02-5.02v-0.2c0-2.77,2.25-5.02,5.02-5.02h33.56
			c2.77,0,5.02,2.25,5.02,5.02v0.2C45.66,15.68,43.41,17.93,40.64,17.93z M7.08,9.68c-1.67,0-3.02,1.36-3.02,3.02v0.2
			c0,1.67,1.36,3.02,3.02,3.02h33.56c1.67,0,3.02-1.36,3.02-3.02v-0.2c0-1.67-1.36-3.02-3.02-3.02H7.08z"/>
	</g>
	<g>
		<path class="st6" d="M40.92,29.12H7.36c-2.77,0-5.02-2.25-5.02-5.02v-0.2c0-2.77,2.25-5.02,5.02-5.02h33.56
			c2.77,0,5.02,2.25,5.02,5.02v0.2C45.95,26.87,43.69,29.12,40.92,29.12z M7.36,20.88c-1.67,0-3.02,1.36-3.02,3.02v0.2
			c0,1.67,1.36,3.02,3.02,3.02h33.56c1.67,0,3.02-1.36,3.02-3.02v-0.2c0-1.67-1.36-3.02-3.02-3.02H7.36z"/>
	</g>
	<g>
		<path class="st6" d="M40.64,40.32H7.08c-2.77,0-5.02-2.25-5.02-5.02v-0.2c0-2.77,2.25-5.02,5.02-5.02h33.56
			c2.77,0,5.02,2.25,5.02,5.02v0.2C45.66,38.07,43.41,40.32,40.64,40.32z M7.08,32.07c-1.67,0-3.02,1.36-3.02,3.02v0.2
			c0,1.67,1.36,3.02,3.02,3.02h33.56c1.67,0,3.02-1.36,3.02-3.02v-0.2c0-1.67-1.36-3.02-3.02-3.02H7.08z"/>
	</g>
	<g>
		<path class="st10" d="M13.99,13.81H7.18c-0.55,0-1-0.45-1-1s0.45-1,1-1h6.81c0.55,0,1,0.45,1,1S14.55,13.81,13.99,13.81z"/>
	</g>
	<g>
		<path class="st10" d="M40.24,13.81h-22.6c-0.55,0-1-0.45-1-1s0.45-1,1-1h22.6c0.55,0,1,0.45,1,1S40.79,13.81,40.24,13.81z"/>
	</g>
	<g>
		<path class="st10" d="M13.99,25H7.18c-0.55,0-1-0.45-1-1s0.45-1,1-1h6.81c0.55,0,1,0.45,1,1S14.55,25,13.99,25z"/>
	</g>
	<g>
		<path class="st10" d="M13.99,36.22H7.18c-0.55,0-1-0.45-1-1s0.45-1,1-1h6.81c0.55,0,1,0.45,1,1S14.55,36.22,13.99,36.22z"/>
	</g>
</g>
</svg>
