<?xml version="1.0" encoding="utf-8"?>
<!-- Generator: Adobe Illustrator 26.0.0, SVG Export Plug-In . SVG Version: 6.00 Build 0)  -->
<svg width="48" height="48" version="1.1" id="图层_1" xmlns="http://www.w3.org/2000/svg" xmlns:xlink="http://www.w3.org/1999/xlink" x="0px" y="0px"
	 viewBox="0 0 48 48" style="enable-background:new 0 0 48 48;" xml:space="preserve">
<style type="text/css">
	.st0{fill:none;stroke:#9C9C9C;stroke-width:2;stroke-miterlimit:10;}
	.st1{fill:none;stroke:#CA1837;stroke-width:2;stroke-linecap:round;stroke-miterlimit:10;}
	.st2{fill:none;stroke:#9C9C9C;stroke-width:2;stroke-linecap:round;stroke-miterlimit:10;}
	.st3{fill:none;stroke:#9C9C9C;stroke-width:1.75;stroke-linecap:round;stroke-miterlimit:10;}
	.st4{fill:none;stroke:#9C9C9C;stroke-width:2;stroke-linecap:round;stroke-linejoin:round;stroke-miterlimit:10;}
	.st5{fill:#BE1A37;}
	.st6{fill:#9C9C9C;}
	.st7{fill:#FFFFFF;}
	.st8{fill:none;stroke:#9C9C9C;stroke-linecap:round;stroke-linejoin:round;stroke-miterlimit:10;}
	.st9{fill:none;stroke:#CA1837;stroke-width:2;stroke-linecap:round;stroke-linejoin:round;stroke-miterlimit:10;}
	.st10{fill:#CA1837;}
</style>
<g>
	<g>
		<path class="st10" d="M7.62,41.32c-0.55,0-1-0.45-1-1c0-18.54,15.15-33.63,33.77-33.63c0.55,0,1,0.45,1,1s-0.45,1-1,1
			c-17.52,0-31.77,14.19-31.77,31.63C8.62,40.87,8.17,41.32,7.62,41.32z"/>
	</g>
	<g>
		<path class="st6" d="M18.35,41.32c-0.55,0-1-0.45-1-1c0-12.62,10.33-22.89,23.03-22.89c0.55,0,1,0.45,1,1s-0.45,1-1,1
			c-11.6,0-21.03,9.37-21.03,20.89C19.35,40.87,18.91,41.32,18.35,41.32z"/>
	</g>
	<g>
		<path class="st6" d="M28.54,41.32c-0.55,0-1-0.45-1-1c0-6.92,5.76-12.56,12.85-12.56c0.55,0,1,0.45,1,1s-0.45,1-1,1
			c-5.98,0-10.85,4.74-10.85,10.56C29.54,40.87,29.09,41.32,28.54,41.32z"/>
	</g>
	<g>
		<path class="st6" d="M38.35,41.32c-0.55,0-1-0.45-1-1c0-2.14,1.33-3.82,3.04-3.82c0.55,0,1,0.45,1,1s-0.45,1-1,1
			c-0.49,0-1.04,0.78-1.04,1.82C39.35,40.87,38.9,41.32,38.35,41.32z"/>
	</g>
</g>
</svg>
