<?xml version="1.0" encoding="utf-8"?>
<!-- Generator: Adobe Illustrator 26.0.0, SVG Export Plug-In . SVG Version: 6.00 Build 0)  -->
<svg width="48" height="48" version="1.1" id="图层_1" xmlns="http://www.w3.org/2000/svg" xmlns:xlink="http://www.w3.org/1999/xlink" x="0px" y="0px"
	 viewBox="0 0 48 48" style="enable-background:new 0 0 48 48;" xml:space="preserve">
<style type="text/css">
	.st0{fill:none;stroke:#9C9C9C;stroke-width:2;stroke-miterlimit:10;}
	.st1{fill:none;stroke:#CA1837;stroke-width:2;stroke-linecap:round;stroke-miterlimit:10;}
	.st2{fill:none;stroke:#9C9C9C;stroke-width:2;stroke-linecap:round;stroke-miterlimit:10;}
	.st3{fill:none;stroke:#9C9C9C;stroke-width:1.75;stroke-linecap:round;stroke-miterlimit:10;}
	.st4{fill:none;stroke:#9C9C9C;stroke-width:2;stroke-linecap:round;stroke-linejoin:round;stroke-miterlimit:10;}
	.st5{fill:#BE1A37;}
	.st6{fill:#9C9C9C;}
	.st7{fill:#FFFFFF;}
	.st8{fill:none;stroke:#9C9C9C;stroke-linecap:round;stroke-linejoin:round;stroke-miterlimit:10;}
	.st9{fill:none;stroke:#CA1837;stroke-width:2;stroke-linecap:round;stroke-linejoin:round;stroke-miterlimit:10;}
	.st10{fill:#CA1837;}
</style>
<g>
	<g>
		<path class="st6" d="M29.29,43.69H12.04c-2.17,0-3.94-1.77-3.94-3.94V14.16c0-2.18,1.77-3.94,3.94-3.94h17.25
			c2.17,0,3.94,1.77,3.94,3.94v3.65c0,0.55-0.45,1-1,1s-1-0.45-1-1v-3.65c0-1.07-0.87-1.94-1.94-1.94H12.04
			c-1.07,0-1.94,0.87-1.94,1.94v25.58c0,1.07,0.87,1.94,1.94,1.94h17.25c1.07,0,1.94-0.87,1.94-1.94v-3.05c0-0.55,0.45-1,1-1
			s1,0.45,1,1v3.05C33.23,41.92,31.46,43.69,29.29,43.69z"/>
	</g>
	<g>
		<path class="st10" d="M34.2,35.07H23.56c-3.18,0-5.76-2.59-5.76-5.76c0-2.23,1.33-4.32,3.29-5.26c0.74-3.34,3.75-5.79,7.24-5.79
			c2.9,0,5.59,1.76,6.76,4.35c2.79,0.64,4.83,3.19,4.83,6.18c0,3.2-2.43,5.9-5.64,6.29L34.2,35.07z M28.32,20.25
			c-2.69,0-5,2-5.36,4.64l-0.08,0.6l-0.57,0.2c-1.48,0.52-2.51,2-2.51,3.61c0,2.11,1.65,3.76,3.76,3.76h10.52
			c2.19-0.29,3.83-2.13,3.83-4.29c0-2.19-1.58-4.04-3.68-4.3l-0.62-0.08l-0.2-0.59C32.68,21.72,30.59,20.25,28.32,20.25z"/>
	</g>
	<g>
		<path class="st6" d="M37.23,22.14c-0.55,0-1-0.45-1-1v-6.99c0-0.76-0.17-3.41-2.29-5.54c-1.48-1.48-3.45-2.29-5.54-2.29H14.04
			c-0.55,0-1-0.45-1-1s0.45-1,1-1H28.4c2.63,0,5.1,1.02,6.95,2.88c2.67,2.67,2.88,6,2.88,6.95v6.99
			C38.23,21.69,37.79,22.14,37.23,22.14z"/>
	</g>
</g>
</svg>
