<?xml version="1.0" encoding="utf-8"?>
<!-- Generator: Adobe Illustrator 26.0.0, SVG Export Plug-In . SVG Version: 6.00 Build 0)  -->
<svg width="48" height="48" version="1.1" id="图层_1" xmlns="http://www.w3.org/2000/svg" xmlns:xlink="http://www.w3.org/1999/xlink" x="0px" y="0px"
	 viewBox="0 0 48 48" style="enable-background:new 0 0 48 48;" xml:space="preserve">
<style type="text/css">
	.st0{fill:none;stroke:#9C9C9C;stroke-width:2;stroke-miterlimit:10;}
	.st1{fill:none;stroke:#CA1837;stroke-width:2;stroke-linecap:round;stroke-miterlimit:10;}
	.st2{fill:none;stroke:#9C9C9C;stroke-width:2;stroke-linecap:round;stroke-miterlimit:10;}
	.st3{fill:none;stroke:#9C9C9C;stroke-width:1.75;stroke-linecap:round;stroke-miterlimit:10;}
	.st4{fill:none;stroke:#9C9C9C;stroke-width:2;stroke-linecap:round;stroke-linejoin:round;stroke-miterlimit:10;}
	.st5{fill:#BE1A37;}
	.st6{fill:#9C9C9C;}
	.st7{fill:#FFFFFF;}
	.st8{fill:none;stroke:#9C9C9C;stroke-linecap:round;stroke-linejoin:round;stroke-miterlimit:10;}
	.st9{fill:none;stroke:#CA1837;stroke-width:2;stroke-linecap:round;stroke-linejoin:round;stroke-miterlimit:10;}
	.st10{fill:#CA1837;}
</style>
<g>
	<g>
		<path class="st6" d="M38.32,41.7H9.68c-2.11,0-3.83-1.72-3.83-3.83V21.64c0-2.11,1.72-3.83,3.83-3.83h28.64
			c2.11,0,3.83,1.72,3.83,3.83v16.22C42.16,39.98,40.43,41.7,38.32,41.7z M9.68,19.81c-1.01,0-1.83,0.82-1.83,1.83v16.22
			c0,1.01,0.82,1.83,1.83,1.83h28.64c1.01,0,1.83-0.82,1.83-1.83V21.64c0-1.01-0.82-1.83-1.83-1.83H9.68z"/>
	</g>
	<g>
		<path class="st6" d="M30.42,19.81C30.42,19.81,30.41,19.81,30.42,19.81c-0.56-0.01-1-0.46-1-1.01l0.05-5.16
			c0-2.94-2.4-5.35-5.36-5.35s-5.36,2.4-5.36,5.36v4.6c0,0.55-0.45,1-1,1s-1-0.45-1-1v-4.6c0-4.06,3.3-7.36,7.36-7.36
			c4.06,0,7.36,3.3,7.36,7.36l-0.05,5.17C31.41,19.37,30.97,19.81,30.42,19.81z"/>
	</g>
	<g>
		<path class="st10" d="M31.28,30.76H16.47c-0.55,0-1-0.45-1-1s0.45-1,1-1h14.81c0.55,0,1,0.45,1,1S31.83,30.76,31.28,30.76z"/>
	</g>
</g>
</svg>
