<?xml version="1.0" encoding="utf-8"?>
<!-- Generator: Adobe Illustrator 26.0.0, SVG Export Plug-In . SVG Version: 6.00 Build 0)  -->
<svg width="48" height="48" version="1.1" id="图层_1" xmlns="http://www.w3.org/2000/svg" xmlns:xlink="http://www.w3.org/1999/xlink" x="0px" y="0px"
	 viewBox="0 0 48 48" style="enable-background:new 0 0 48 48;" xml:space="preserve">
<style type="text/css">
	.st0{fill:none;stroke:#9C9C9C;stroke-width:2;stroke-miterlimit:10;}
	.st1{fill:none;stroke:#CA1837;stroke-width:2;stroke-linecap:round;stroke-miterlimit:10;}
	.st2{fill:none;stroke:#9C9C9C;stroke-width:2;stroke-linecap:round;stroke-miterlimit:10;}
	.st3{fill:none;stroke:#9C9C9C;stroke-width:1.75;stroke-linecap:round;stroke-miterlimit:10;}
	.st4{fill:none;stroke:#9C9C9C;stroke-width:2;stroke-linecap:round;stroke-linejoin:round;stroke-miterlimit:10;}
	.st5{fill:#BE1A37;}
	.st6{fill:#9C9C9C;}
	.st7{fill:#FFFFFF;}
	.st8{fill:none;stroke:#9C9C9C;stroke-linecap:round;stroke-linejoin:round;stroke-miterlimit:10;}
	.st9{fill:none;stroke:#CA1837;stroke-width:2;stroke-linecap:round;stroke-linejoin:round;stroke-miterlimit:10;}
	.st10{fill:#CA1837;}
</style>
<g>
	<g>
		<path class="st10" d="M14.74,20.8c-0.55,0-1-0.45-1-1v-10c0-0.55,0.45-1,1-1s1,0.45,1,1v10C15.74,20.35,15.3,20.8,14.74,20.8z"/>
	</g>
	<g>
		<path class="st10" d="M25.2,20.8c-0.55,0-1-0.45-1-1v-10c0-0.55,0.45-1,1-1s1,0.45,1,1v10C26.2,20.35,25.76,20.8,25.2,20.8z"/>
	</g>
	<g>
		<path class="st10" d="M34.46,20.8c-0.55,0-1-0.45-1-1v-10c0-0.55,0.45-1,1-1s1,0.45,1,1v10C35.46,20.35,35.01,20.8,34.46,20.8z"/>
	</g>
	<g>
		<path class="st6" d="M39.18,39.2H8.82c-2.11,0-3.83-1.72-3.83-3.83V23.82c0-2.11,1.72-3.83,3.83-3.83h30.37
			c2.11,0,3.83,1.72,3.83,3.83v11.54C43.02,37.48,41.3,39.2,39.18,39.2z M8.82,21.99c-1.01,0-1.83,0.82-1.83,1.83v11.54
			c0,1.01,0.82,1.83,1.83,1.83h30.37c1.01,0,1.83-0.82,1.83-1.83V23.82c0-1.01-0.82-1.83-1.83-1.83H8.82z"/>
	</g>
	<g>
		<path class="st6" d="M33.07,34.33c-0.48,0-0.88-0.39-0.88-0.88v-4.79c0-0.48,0.39-0.88,0.88-0.88s0.88,0.39,0.88,0.88v4.79
			C33.95,33.94,33.55,34.33,33.07,34.33z"/>
	</g>
	<g>
		<path class="st6" d="M36.28,34.33c-0.48,0-0.88-0.39-0.88-0.88v-4.79c0-0.48,0.39-0.88,0.88-0.88s0.88,0.39,0.88,0.88v4.79
			C37.16,33.94,36.76,34.33,36.28,34.33z"/>
	</g>
	<g>
		<path class="st6" d="M39.3,34.33c-0.48,0-0.88-0.39-0.88-0.88v-4.79c0-0.48,0.39-0.88,0.88-0.88s0.88,0.39,0.88,0.88v4.79
			C40.18,33.94,39.79,34.33,39.3,34.33z"/>
	</g>
</g>
</svg>
