<?xml version="1.0" encoding="utf-8"?>
<!-- Generator: Adobe Illustrator 26.0.0, SVG Export Plug-In . SVG Version: 6.00 Build 0)  -->
<svg width="48" height="48" version="1.1" id="图层_1" xmlns="http://www.w3.org/2000/svg" xmlns:xlink="http://www.w3.org/1999/xlink" x="0px" y="0px"
	 viewBox="0 0 48 48" style="enable-background:new 0 0 48 48;" xml:space="preserve">
<style type="text/css">
	.st0{fill:none;stroke:#9C9C9C;stroke-width:2;stroke-miterlimit:10;}
	.st1{fill:none;stroke:#CA1837;stroke-width:2;stroke-linecap:round;stroke-miterlimit:10;}
	.st2{fill:none;stroke:#9C9C9C;stroke-width:2;stroke-linecap:round;stroke-miterlimit:10;}
	.st3{fill:none;stroke:#9C9C9C;stroke-width:1.75;stroke-linecap:round;stroke-miterlimit:10;}
	.st4{fill:none;stroke:#9C9C9C;stroke-width:2;stroke-linecap:round;stroke-linejoin:round;stroke-miterlimit:10;}
	.st5{fill:#BE1A37;}
	.st6{fill:#9C9C9C;}
	.st7{fill:#FFFFFF;}
	.st8{fill:none;stroke:#9C9C9C;stroke-linecap:round;stroke-linejoin:round;stroke-miterlimit:10;}
	.st9{fill:none;stroke:#CA1837;stroke-width:2;stroke-linecap:round;stroke-linejoin:round;stroke-miterlimit:10;}
	.st10{fill:#CA1837;}
</style>
<g>
	<g>
		<path class="st6" d="M29.7,43.33H7.26c-2.17,0-3.94-1.77-3.94-3.94V8.62c0-2.18,1.77-3.94,3.94-3.94H29.7
			c2.17,0,3.94,1.77,3.94,3.94V20.3c0,0.55-0.45,1-1,1s-1-0.45-1-1V8.62c0-1.07-0.87-1.94-1.94-1.94H7.26
			c-1.07,0-1.94,0.87-1.94,1.94v30.77c0,1.07,0.87,1.94,1.94,1.94H29.7c1.07,0,1.94-0.87,1.94-1.94c0-0.55,0.45-1,1-1s1,0.45,1,1
			C33.64,41.56,31.87,43.33,29.7,43.33z"/>
	</g>
	<g>
		<path class="st10" d="M22.56,28.18c-1.94,0-3.51-1.58-3.51-3.51s1.58-3.51,3.51-3.51s3.51,1.58,3.51,3.51S24.5,28.18,22.56,28.18z
			 M22.56,23.15c-0.83,0-1.51,0.68-1.51,1.51c0,0.83,0.68,1.51,1.51,1.51s1.51-0.68,1.51-1.51C24.08,23.83,23.4,23.15,22.56,23.15z"
			/>
	</g>
	<g>
		<path class="st10" d="M40.49,25.67c-2.31,0-4.19-1.88-4.19-4.19c0-2.31,1.88-4.19,4.19-4.19c2.31,0,4.19,1.88,4.19,4.19
			C44.68,23.79,42.8,25.67,40.49,25.67z M40.49,19.29c-1.21,0-2.19,0.98-2.19,2.19s0.98,2.19,2.19,2.19c1.21,0,2.19-0.98,2.19-2.19
			S41.7,19.29,40.49,19.29z"/>
	</g>
	<g>
		<path class="st10" d="M30.74,37.05c-2.31,0-4.19-1.88-4.19-4.19c0-2.31,1.88-4.19,4.19-4.19c2.31,0,4.19,1.88,4.19,4.19
			C34.92,35.17,33.05,37.05,30.74,37.05z M30.74,30.67c-1.21,0-2.19,0.98-2.19,2.19s0.98,2.19,2.19,2.19c1.21,0,2.19-0.98,2.19-2.19
			S31.94,30.67,30.74,30.67z"/>
	</g>
	<g>
		<path class="st10" d="M28.46,31.63c-0.25,0-0.5-0.09-0.7-0.28l-4.21-4.11c-0.4-0.39-0.4-1.02-0.02-1.41
			c0.39-0.4,1.02-0.4,1.41-0.02l4.21,4.11c0.4,0.39,0.4,1.02,0.02,1.41C28.98,31.53,28.71,31.63,28.46,31.63z"/>
	</g>
	<g>
		<path class="st10" d="M32.64,31.31c-0.23,0-0.46-0.08-0.64-0.24c-0.42-0.36-0.48-0.99-0.12-1.41l5.57-6.61
			c0.35-0.42,0.99-0.48,1.41-0.12c0.42,0.36,0.48,0.99,0.12,1.41l-5.57,6.61C33.21,31.19,32.93,31.31,32.64,31.31z"/>
	</g>
</g>
</svg>
