<?xml version="1.0" encoding="utf-8"?>
<!-- Generator: Adobe Illustrator 26.0.0, SVG Export Plug-In . SVG Version: 6.00 Build 0)  -->
<svg width="48" height="48" version="1.1" id="图层_1" xmlns="http://www.w3.org/2000/svg" xmlns:xlink="http://www.w3.org/1999/xlink" x="0px" y="0px"
	 viewBox="0 0 48 48" style="enable-background:new 0 0 48 48;" xml:space="preserve">
<style type="text/css">
	.st0{fill:none;stroke:#9C9C9C;stroke-width:2;stroke-miterlimit:10;}
	.st1{fill:none;stroke:#CA1837;stroke-width:2;stroke-linecap:round;stroke-miterlimit:10;}
	.st2{fill:none;stroke:#9C9C9C;stroke-width:2;stroke-linecap:round;stroke-miterlimit:10;}
	.st3{fill:none;stroke:#9C9C9C;stroke-width:1.75;stroke-linecap:round;stroke-miterlimit:10;}
	.st4{fill:none;stroke:#9C9C9C;stroke-width:2;stroke-linecap:round;stroke-linejoin:round;stroke-miterlimit:10;}
	.st5{fill:#BE1A37;}
	.st6{fill:#9C9C9C;}
	.st7{fill:#FFFFFF;}
	.st8{fill:none;stroke:#9C9C9C;stroke-linecap:round;stroke-linejoin:round;stroke-miterlimit:10;}
	.st9{fill:none;stroke:#CA1837;stroke-width:2;stroke-linecap:round;stroke-linejoin:round;stroke-miterlimit:10;}
	.st10{fill:#CA1837;}
</style>
<g>
	<g>
		<path class="st6" d="M39.53,37.14H8.47V13.7c0-5.24,4.26-9.5,9.5-9.5H35.7c2.11,0,3.83,1.72,3.83,3.83V37.14z M10.47,35.14h27.06
			V8.03c0-1.01-0.82-1.83-1.83-1.83H17.97c-4.14,0-7.5,3.37-7.5,7.5V35.14z"/>
	</g>
	<g>
		<path class="st6" d="M38.53,43.81H15.74c-4.01,0-7.27-3.26-7.27-7.27v-0.4c0-0.55,0.45-1,1-1h29.06c0.35,0,0.68,0.19,0.86,0.49
			c0.18,0.3,0.19,0.68,0.02,0.99c-0.33,0.59-0.72,1.56-0.73,2.79c-0.02,1.29,0.39,2.3,0.73,2.93c0.17,0.31,0.16,0.69-0.02,0.99
			C39.21,43.62,38.88,43.81,38.53,43.81z M10.5,37.14c0.3,2.63,2.54,4.67,5.24,4.67h21.28c-0.21-0.69-0.36-1.51-0.35-2.43
			c0.01-0.85,0.16-1.6,0.35-2.24H10.5z"/>
	</g>
	<g>
		<path class="st10" d="M33.17,24.25c-0.55,0-1-0.45-1-1V6.19h-5.4v17.06c0,0.55-0.45,1-1,1s-1-0.45-1-1V4.19h9.4v19.06
			C34.17,23.8,33.72,24.25,33.17,24.25z"/>
	</g>
	<g>
		
			<rect x="24.38" y="19.59" transform="matrix(0.5704 -0.8214 0.8214 0.5704 -5.0418 31.5351)" class="st10" width="6.48" height="2"/>
	</g>
	<g>
		<path class="st10" d="M33.17,24.25c-0.32,0-0.63-0.15-0.82-0.43l-3.7-5.33c-0.32-0.45-0.2-1.08,0.25-1.39
			c0.45-0.31,1.08-0.2,1.39,0.25l3.7,5.33c0.32,0.45,0.2,1.08-0.25,1.39C33.57,24.19,33.37,24.25,33.17,24.25z"/>
	</g>
</g>
</svg>
