<?xml version="1.0" encoding="utf-8"?>
<!-- Generator: Adobe Illustrator 26.0.0, SVG Export Plug-In . SVG Version: 6.00 Build 0)  -->
<svg width="48" height="48" version="1.1" id="图层_1" xmlns="http://www.w3.org/2000/svg" xmlns:xlink="http://www.w3.org/1999/xlink" x="0px" y="0px"
	 viewBox="0 0 48 48" style="enable-background:new 0 0 48 48;" xml:space="preserve">
<style type="text/css">
	.st0{fill:none;stroke:#9C9C9C;stroke-width:2;stroke-miterlimit:10;}
	.st1{fill:none;stroke:#CA1837;stroke-width:2;stroke-linecap:round;stroke-miterlimit:10;}
	.st2{fill:none;stroke:#9C9C9C;stroke-width:2;stroke-linecap:round;stroke-miterlimit:10;}
	.st3{fill:none;stroke:#9C9C9C;stroke-width:1.75;stroke-linecap:round;stroke-miterlimit:10;}
	.st4{fill:none;stroke:#9C9C9C;stroke-width:2;stroke-linecap:round;stroke-linejoin:round;stroke-miterlimit:10;}
	.st5{fill:#BE1A37;}
	.st6{fill:#9C9C9C;}
	.st7{fill:#FFFFFF;}
	.st8{fill:none;stroke:#9C9C9C;stroke-linecap:round;stroke-linejoin:round;stroke-miterlimit:10;}
	.st9{fill:none;stroke:#CA1837;stroke-width:2;stroke-linecap:round;stroke-linejoin:round;stroke-miterlimit:10;}
	.st10{fill:#CA1837;}
</style>
<g>
	<g>
		<path class="st6" d="M42.65,13.59H21.34c-0.55,0-1-0.45-1-1s0.45-1,1-1h21.31c0.55,0,1,0.45,1,1S43.2,13.59,42.65,13.59z"/>
	</g>
	<g>
		<path class="st6" d="M15.04,13.59H5.26c-0.55,0-1-0.45-1-1s0.45-1,1-1h9.79c0.55,0,1,0.45,1,1S15.59,13.59,15.04,13.59z"/>
	</g>
	<g>
		<path class="st6" d="M42.65,25.67h-6.22c-0.55,0-1-0.45-1-1s0.45-1,1-1h6.22c0.55,0,1,0.45,1,1S43.2,25.67,42.65,25.67z"/>
	</g>
	<g>
		<path class="st6" d="M30.13,25.67H5.26c-0.55,0-1-0.45-1-1s0.45-1,1-1h24.88c0.55,0,1,0.45,1,1S30.69,25.67,30.13,25.67z"/>
	</g>
	<g>
		<path class="st6" d="M42.74,36.41H21.34c-0.55,0-1-0.45-1-1s0.45-1,1-1h21.41c0.55,0,1,0.45,1,1S43.3,36.41,42.74,36.41z"/>
	</g>
	<g>
		<path class="st6" d="M15.04,36.41H5.35c-0.55,0-1-0.45-1-1s0.45-1,1-1h9.69c0.55,0,1,0.45,1,1S15.59,36.41,15.04,36.41z"/>
	</g>
	<g>
		<path class="st10" d="M18.19,16.74c-2.29,0-4.15-1.86-4.15-4.15c0-2.29,1.86-4.15,4.15-4.15s4.15,1.86,4.15,4.15
			C22.34,14.88,20.48,16.74,18.19,16.74z M18.19,10.44c-1.18,0-2.15,0.96-2.15,2.15s0.96,2.15,2.15,2.15s2.15-0.96,2.15-2.15
			S19.37,10.44,18.19,10.44z"/>
	</g>
	<g>
		<path class="st10" d="M33.28,28.82c-2.29,0-4.15-1.86-4.15-4.15c0-2.29,1.86-4.15,4.15-4.15c2.29,0,4.15,1.86,4.15,4.15
			C37.43,26.96,35.57,28.82,33.28,28.82z M33.28,22.52c-1.18,0-2.15,0.96-2.15,2.15s0.96,2.15,2.15,2.15c1.18,0,2.15-0.96,2.15-2.15
			S34.46,22.52,33.28,22.52z"/>
	</g>
	<g>
		<path class="st10" d="M18.19,39.56c-2.29,0-4.15-1.86-4.15-4.15c0-2.29,1.86-4.15,4.15-4.15s4.15,1.86,4.15,4.15
			C22.34,37.7,20.48,39.56,18.19,39.56z M18.19,33.26c-1.18,0-2.15,0.96-2.15,2.15s0.96,2.15,2.15,2.15s2.15-0.96,2.15-2.15
			S19.37,33.26,18.19,33.26z"/>
	</g>
</g>
</svg>
