<?xml version="1.0" encoding="utf-8"?>
<!-- Generator: Adobe Illustrator 26.0.0, SVG Export Plug-In . SVG Version: 6.00 Build 0)  -->
<svg width="48" height="48" version="1.1" id="图层_1" xmlns="http://www.w3.org/2000/svg" xmlns:xlink="http://www.w3.org/1999/xlink" x="0px" y="0px"
	 viewBox="0 0 48 48" style="enable-background:new 0 0 48 48;" xml:space="preserve">
<style type="text/css">
	.st0{fill:none;stroke:#9C9C9C;stroke-width:2;stroke-miterlimit:10;}
	.st1{fill:none;stroke:#CA1837;stroke-width:2;stroke-linecap:round;stroke-miterlimit:10;}
	.st2{fill:none;stroke:#9C9C9C;stroke-width:2;stroke-linecap:round;stroke-miterlimit:10;}
	.st3{fill:none;stroke:#9C9C9C;stroke-width:1.75;stroke-linecap:round;stroke-miterlimit:10;}
	.st4{fill:none;stroke:#9C9C9C;stroke-width:2;stroke-linecap:round;stroke-linejoin:round;stroke-miterlimit:10;}
	.st5{fill:#BE1A37;}
	.st6{fill:#9C9C9C;}
	.st7{fill:#FFFFFF;}
	.st8{fill:none;stroke:#9C9C9C;stroke-linecap:round;stroke-linejoin:round;stroke-miterlimit:10;}
	.st9{fill:none;stroke:#CA1837;stroke-width:2;stroke-linecap:round;stroke-linejoin:round;stroke-miterlimit:10;}
	.st10{fill:#CA1837;}
</style>
<g>
	<g>
		<path class="st6" d="M40.81,40.23H7.19c-2.11,0-3.83-1.72-3.83-3.83V11.6c0-2.11,1.72-3.83,3.83-3.83h33.63
			c2.11,0,3.83,1.72,3.83,3.83v24.8C44.65,38.51,42.93,40.23,40.81,40.23z M7.19,9.77c-1.01,0-1.83,0.82-1.83,1.83v24.8
			c0,1.01,0.82,1.83,1.83,1.83h33.63c1.01,0,1.83-0.82,1.83-1.83V11.6c0-1.01-0.82-1.83-1.83-1.83H7.19z"/>
	</g>
	<g>
		<path class="st6" d="M23.29,16.74H8.77c-0.55,0-1-0.45-1-1c0-0.55,0.45-1,1-1h14.52c0.55,0,1,0.45,1,1
			C24.29,16.29,23.84,16.74,23.29,16.74z"/>
	</g>
	<g>
		<path class="st6" d="M19.44,21.33H8.77c-0.55,0-1-0.45-1-1s0.45-1,1-1h10.68c0.55,0,1,0.45,1,1S20,21.33,19.44,21.33z"/>
	</g>
	<g>
		<path class="st10" d="M28.84,34.68c-0.23,0-0.47-0.08-0.66-0.25l-5.55-4.84c-0.42-0.36-0.46-0.99-0.1-1.41
			c0.37-0.42,1-0.46,1.41-0.1l5.55,4.84c0.42,0.36,0.46,0.99,0.1,1.41C29.4,34.57,29.12,34.68,28.84,34.68z"/>
	</g>
	<g>
		<path class="st10" d="M28.84,34.68c-0.31,0-0.61-0.14-0.81-0.41c-0.33-0.44-0.23-1.07,0.21-1.4l10.82-7.97
			c0.44-0.33,1.07-0.23,1.4,0.21c0.33,0.44,0.23,1.07-0.21,1.4l-10.82,7.97C29.26,34.62,29.05,34.68,28.84,34.68z"/>
	</g>
</g>
</svg>
