<?xml version="1.0" encoding="UTF-8"?>
<svg width="80px" height="80px" viewBox="0 0 80 80" version="1.1" xmlns="http://www.w3.org/2000/svg" xmlns:xlink="http://www.w3.org/1999/xlink">
    <title>编组 67</title>
    <g id="页面-1" stroke="none" stroke-width="1" fill="none" fill-rule="evenodd">
        <g id="Residential备份-2" transform="translate(-742.000000, -1851.000000)">
            <g id="编组-32" transform="translate(320.000000, 1851.000000)">
                <g id="编组-69" transform="translate(350.000000, 0.000000)">
                    <g id="编组-68" transform="translate(26.500000, 0.000000)">
                        <g id="编组-67" transform="translate(45.500000, 0.000000)">
                            <g id="编组-62备份" stroke="#191919" stroke-width="3">
                                <g id="编组-60备份-2">
                                    <circle id="椭圆形" cx="40" cy="40" r="38.5"></circle>
                                </g>
                            </g>
                            <g id="编组-66" transform="translate(19.000000, 20.000000)" stroke-width="2.5">
                                <g id="Home-Power" stroke="#000000" stroke-linecap="round" stroke-linejoin="round">
                                    <path d="M37.6247726,20.6736733 L37.6247726,33.8461553 C37.6247726,37.2450007 34.8745759,40 31.4819986,40 L11.5179829,40 C8.12540554,40 5.37520881,37.2450007 5.37520881,33.8461553 L5.37520881,15.3860059 L3.54554516,16.5590826 C2.47401501,17.2461209 1.04939053,16.9328517 0.363618911,15.859352 C-0.322171903,14.7858907 -0.00945095369,13.3586987 1.06209839,12.6716989 L20.2582673,0.364009528 C21.0152107,-0.121336509 21.9847708,-0.121336509 22.7417141,0.364009528 L41.9377679,12.6716989 C43.009298,13.3586987 43.3221956,14.7858907 42.6365084,15.859352 C41.9504374,16.9328517 40.5260816,17.2461209 39.4545515,16.5590826" id="形状"></path>
                                </g>
                                <g id="爱心" transform="translate(13.000000, 17.000000)" fill-rule="nonzero" stroke="#191919">
                                    <path d="M4.48611111,0 C2.00694443,0 0,2.27027027 0,5.06906907 C0,6.77477477 0.767361119,8 1.39305554,8.98498498 C3.27013888,11.975976 8.03958334,15.7477478 8.24027777,15.9039039 C8.32291666,15.963964 8.40555555,16 8.5,16 C8.59444445,16 8.67708334,15.963964 8.75972223,15.9039039 C8.96041669,15.7477478 13.7298611,11.975976 15.6069445,8.98498498 L15.6305556,8.94894894 C16.2680556,7.91591591 17,6.75075075 17,5.06906907 C17,2.28228228 14.98125,0 12.5138889,0 C11.15625,0 9.89305557,0.672672677 9.04305555,1.86186184 L8.90138888,2.06606606 C8.80694443,2.18618618 8.66527776,2.25825826 8.52361111,2.25825826 C8.38194446,2.25825826 8.22847223,2.18618618 8.14583334,2.06606606 L8.00416667,1.86186184 C7.10694443,0.684684666 5.83194445,0 4.48611111,0 Z" id="形状"></path>
                                </g>
                            </g>
                        </g>
                    </g>
                </g>
            </g>
        </g>
    </g>
</svg>