<?xml version="1.0" encoding="UTF-8"?>
<svg width="81px" height="80px" viewBox="0 0 81 80" version="1.1" xmlns="http://www.w3.org/2000/svg" xmlns:xlink="http://www.w3.org/1999/xlink">
    <title>编组 60</title>
    <g id="页面-1" stroke="none" stroke-width="1" fill="none" fill-rule="evenodd">
        <g id="Residential备份-2" transform="translate(-1093.000000, -1851.000000)" stroke="#191919" stroke-width="3">
            <g id="编组-32" transform="translate(320.000000, 1851.000000)">
                <g id="编组-63" transform="translate(700.000000, 0.000000)">
                    <g id="编组-60" transform="translate(73.500000, 0.000000)">
                        <circle id="椭圆形" cx="40" cy="40" r="38.5"></circle>
                        <path d="M30.1166364,38.0746745 L37.1593188,44.7269276 C37.5556042,45.1012439 38.1786745,45.0892112 38.5602124,44.6998738 L55.9133754,26.9919662 C56.2999287,26.5975108 56.2935227,25.9643782 55.8990673,25.577825 C55.8043084,25.4849644 55.6920182,25.4118883 55.5687382,25.3628537 L39.9825011,19.163432 L39.9825011,19.163432 L23.8480906,25.666021 C23.4697106,25.8185181 23.2218996,26.1855723 23.2218996,26.5935267 L23.2218996,45.4010875 L23.2218996,45.4010875 C24.1087772,51.8408342 29.6956444,57.094949 39.9825011,61.163432 C50.5717452,57.5233688 56.2327256,52.269254 56.9654422,45.4010875 L56.9654422,34.0942737" id="路径-9" stroke-linecap="round"></path>
                    </g>
                </g>
            </g>
        </g>
    </g>
</svg>