<?xml version="1.0" encoding="UTF-8"?>
<svg width="81px" height="80px" viewBox="0 0 81 80" version="1.1" xmlns="http://www.w3.org/2000/svg" xmlns:xlink="http://www.w3.org/1999/xlink">
    <title>编组 61</title>
    <g id="页面-1" stroke="none" stroke-width="1" fill="none" fill-rule="evenodd">
        <g id="Residential备份-2" transform="translate(-1446.000000, -1851.000000)">
            <g id="编组-32" transform="translate(320.000000, 1851.000000)">
                <g id="编组-65" transform="translate(1053.000000, 0.000000)">
                    <g id="编组-61" transform="translate(73.500000, 0.000000)">
                        <g id="编组-60备份" stroke="#191919" stroke-width="3">
                            <circle id="椭圆形" cx="40" cy="40" r="38.5"></circle>
                        </g>
                        <g id="ic_hand_thumbsup_lined" transform="translate(16.000000, 12.000000)" fill-rule="nonzero">
                            <rect id="矩形" fill="#D8D8D8" opacity="0" x="0" y="0" width="48" height="48"></rect>
                            <path d="M7.66997212,45 C5.19355541,45 3.17468868,43.0593225 3.01074914,40.6121228 L3,40.2901683 L3,25.3107035 C3,22.8222622 4.91560593,20.7796475 7.3496613,20.6137498 L7.66997212,20.6028716 L12.3699441,20.6028716 L15.3782779,17.847295 C16.6539285,16.6778533 17.5483472,15.146186 17.948611,13.4569651 L18.0454372,12.992516 L18.9016369,8.21554706 C19.346273,5.7457797 21.9574868,4.3246368 24.2548385,5.32132443 C27.261543,6.62562945 29.066002,9.73452721 28.762186,12.994113 L28.7131629,13.4022264 L28.12088,17.3399343 C27.9976674,18.159118 27.2336845,18.723317 26.4144764,18.6001081 C25.6635355,18.4871665 25.1268591,17.8358159 25.1375331,17.0970617 L25.154265,16.8937551 L25.7458438,12.9607785 C26.049559,10.8967858 24.9440314,8.89030624 23.0608648,8.07339068 C22.5988274,7.87293944 22.0749357,8.11287415 21.8994054,8.58152507 L21.8543605,8.74592266 L20.9980832,13.5233228 C20.5763857,15.8617564 19.4579422,18.0093209 17.7978751,19.6815347 L17.4052387,20.0588625 L14.4539316,22.7593654 L14.4539316,41.998678 L34.4178125,42.0001072 C35.8677972,42.0001072 37.1348652,41.0239153 37.5407186,39.62491 L37.6102054,39.3396354 L39.9341907,27.5700605 C40.3225516,25.6032168 38.9238962,23.7692171 37.008126,23.6134569 L36.7437986,23.6027645 L24.9998687,23.6027645 C24.1714464,23.6027645 23.4998776,22.9312155 23.4998776,22.1028181 C23.4998776,21.3434536 24.0641821,20.7158856 24.7963287,20.6165643 L24.9998687,20.6028716 L36.7437986,20.6028716 C40.5742373,20.6028716 43.4675264,24.0333053 42.9371762,27.7974016 L42.87735,28.1511686 L40.5531476,39.92184 C39.9928874,42.7481811 37.613238,44.8211646 34.7886476,44.9890064 L34.4178125,45 L7.66997212,45 Z M11.4539495,23.6013353 L7.66997212,23.6027645 C6.82154939,23.6027645 6.11649546,24.2503449 6.01304587,25.0955463 L5.99998209,25.3107035 L5.99998209,40.2901683 C5.99998209,41.1657972 6.64034337,41.8818698 7.46125015,41.9868535 L7.66997212,42.0001072 L11.4539495,41.998678 L11.4539495,23.6013353 Z" id="形状结合" fill="#191919"></path>
                        </g>
                    </g>
                </g>
            </g>
        </g>
    </g>
</svg>