<?xml version="1.0" encoding="UTF-8"?>
<svg width="80px" height="80px" viewBox="0 0 80 80" version="1.1" xmlns="http://www.w3.org/2000/svg" xmlns:xlink="http://www.w3.org/1999/xlink">
    <title>编组 62</title>
    <g id="页面-1" stroke="none" stroke-width="1" fill="none" fill-rule="evenodd">
        <g id="Residential备份-2" transform="translate(-392.000000, -1851.000000)">
            <g id="编组-32" transform="translate(320.000000, 1851.000000)">
                <g id="编组-55" transform="translate(26.500000, 0.000000)">
                    <g id="编组-62" transform="translate(45.500000, 0.000000)">
                        <g id="编组-60备份-2" stroke="#191919" stroke-width="3">
                            <circle id="椭圆形" cx="40" cy="40" r="38.5"></circle>
                        </g>
                        <g id="ic_battery_cabinet_lined" transform="translate(19.000000, 19.000000)">
                            <rect id="矩形备份" x="0" y="0" width="42" height="42"></rect>
                            <path d="M9.25,37 C6.45405846,37 4.16859346,34.7796978 4.00891221,31.9800405 L4,31.6666667 L4,10.3333333 C4,7.49301177 6.18560993,5.17126955 8.94152262,5.00905367 L9.25,5 L33.75,5 C36.6494949,5 39,7.38781467 39,10.3333333 C39,11.069713 38.4123738,11.6666667 37.6875,11.6666667 C37.0230324,11.6666667 36.4738907,11.1650598 36.3869816,10.5142588 L36.375,10.3333333 C36.375,8.9472069 35.3339458,7.80809124 34.002805,7.67887392 L33.75,7.66666667 L28.20075,7.66666667 L28.20075,34.3333333 L33.75,34.3333333 C35.1144682,34.3333333 36.2357852,33.2757545 36.3629835,31.9234844 L36.375,31.6666667 L36.375,14.7748507 C36.375,14.0384711 36.9626262,13.4415174 37.6875,13.4415174 C38.3519676,13.4415174 38.9011093,13.9431243 38.9880184,14.5939253 L39,14.7748507 L39,31.6666667 C39,34.5069883 36.81439,36.8287305 34.0584774,36.9909463 L33.75,37 L9.25,37 Z M25.57575,7.66666667 L17.4225,7.66666667 L17.4225,34.3333333 L25.57575,34.3333333 L25.57575,7.66666667 Z M14.7975,7.66666667 L9.25,7.66666667 C7.88553179,7.66666667 6.76421481,8.72424548 6.63701652,10.0765155 L6.625,10.3333333 L6.625,31.6666667 C6.625,33.0527931 7.66605414,34.1919088 8.99719498,34.321126 L9.25,34.3333333 L14.7975,34.3333333 L14.7975,7.66666667 Z" id="形状结合" fill="#191919" fill-rule="nonzero"></path>
                        </g>
                    </g>
                </g>
            </g>
        </g>
    </g>
</svg>